Coordinates
version=1
nRows=10
nColumns=33
inDegrees=yes

Units are S.I. units (second, meters, Newtons, ...)
Angles are in degrees.

endheader
time	ground_thorax_rot_x	ground_thorax_rot_y	ground_thorax_rot_z	ground_thorax_tx	ground_thorax_ty	ground_thorax_tz	clav_prot_r	clav_elev_r	scapula_abduction_r	scapula_elevation_r	scapula_upward_rot_r	scapula_winging_r	shoulder_elv_r	plane_of_elev_r	axial_rot_r	elbow_flexion_r	pro_sup_r	wrist_flex_r	wrist_dev_r	clav_prot_l	clav_elev_l	scapula_abduction_l	scapula_elevation_l	scapula_upward_rot_l	scapula_winging_l	shoulder_elv_l	plane_of_elev_l	axial_rot_l	elbow_flexion_l	pro_sup_l	wrist_flex_l	wrist_dev_l
      4.81000000	     30.91787970	     25.65077532	     34.77622881	    -82.97189615	    838.52567710	    -47.16870386	     12.94571652	     34.37845264	     27.02878011	     45.00000000	    -45.00000000	   -449.78192621	  -3706.44117561	    158.85753112	     22.38353014	     -0.32150869	    156.02288696	     12.70378437	     15.03630565	     -7.44983936	    -45.00000000	    -39.37033095	     45.00000000	    -45.00000000	  -4214.17451842	    -88.16380766	    135.53159778	   -132.72413899	   1069.66122599	    401.30229021	     13.67819125	    -18.86252414
      4.82000000	     30.95535049	     25.50520714	     34.65608563	    -84.38612337	    840.55093902	    -47.38402250	     12.96455363	     34.38322284	     27.12573373	     45.00000000	    -45.00000000	   -449.90814827	  -3706.45733878	    158.81782235	     22.13139749	     -0.38525531	    155.64069220	     12.74487942	     15.03006310	     -7.43564711	    -45.00000000	    -39.43135284	     45.00000000	    -45.00000000	  -4214.12007297	    -88.06528602	    135.50119250	   -132.50760612	   1069.67159894	    400.96114038	     13.73635995	    -18.98945089
      4.83000000	     30.97873760	     25.39308445	     34.55985324	    -85.72491346	    842.50517326	    -47.59458228	     12.93444969	     34.32573464	     27.14245147	     45.00000000	    -45.00000000	   -449.98463856	  -3706.42835803	    158.78272589	     21.92418754	     -0.49738038	    155.28936117	     12.79699482	     15.02853902	     -7.24187113	    -45.00000000	    -39.53737328	     45.00000000	    -45.00000000	  -4214.01582824	    -87.97708743	    135.42426549	   -132.33572420	   1069.66069001	    400.66144806	     13.79918020	    -19.09951545
      4.84000000	     30.96207076	     25.34648929	     34.49552926	    -86.98764402	    844.38139650	    -47.79848561	     12.91766330	     34.24991399	     27.05065511	     45.00000000	    -45.00000000	   -450.01792238	  -3706.37876145	    158.73535985	     21.74321009	     -0.60202411	    154.96449940	     12.83921433	     15.02576662	     -7.03347413	    -45.00000000	    -39.73760185	     45.00000000	    -45.00000000	  -4213.92739205	    -87.91710076	    135.39629342	   -132.17801662	   1069.63966518	    400.40525182	     13.83518686	    -19.17242352
      4.85000000	     30.96434826	     25.27938179	     34.42490956	    -88.17362220	    846.16937184	    -47.99348904	     12.88189293	     34.18621201	     27.00164368	     45.00000000	    -45.00000000	   -450.05686208	  -3706.33770024	    158.68666783	     21.57281422	     -0.70279721	    154.67817300	     12.88827437	     15.02161585	     -6.81897650	    -45.00000000	    -39.87230751	     45.00000000	    -45.00000000	  -4213.83446964	    -87.84927559	    135.34280966	   -132.01170794	   1069.62797654	    400.19765844	     13.87388415	    -19.26657966
      4.86000000	     30.99686076	     25.20009055	     34.34992607	    -89.28341242	    847.85862585	    -48.17903875	     12.87001773	     34.20391459	     27.07473645	     45.00000000	    -45.00000000	   -450.15968090	  -3706.37861034	    158.65383704	     21.36924317	     -0.77146361	    154.45737757	     12.95443818	     15.00658764	     -6.76014842	    -45.00000000	    -39.94453127	     45.00000000	    -45.00000000	  -4213.77087344	    -87.77461177	    135.30514584	   -131.82152727	   1069.60295617	    400.05249221	     13.92301263	    -19.40723823
      4.87000000	     31.01470469	     25.13878294	     34.30141301	    -90.32023223	    849.43960603	    -48.35526410	     12.81704201	     34.17460947	     27.10743223	     45.00000000	    -45.00000000	   -450.21817849	  -3706.38687146	    158.63713718	     21.16808733	     -0.85687113	    154.30442247	     13.02874298	     14.99223078	     -6.58380770	    -45.00000000	    -40.01844492	     45.00000000	    -45.00000000	  -4213.66044717	    -87.72083529	    135.24323999	   -131.65503817	   1069.59645317	    399.95671275	     13.96811193	    -19.54916993
      4.88000000	     31.13351356	     24.93011147	     34.12139895	    -91.28521284	    850.90105369	    -48.52470535	     12.74737257	     34.22085105	     27.29663470	     45.00000000	    -45.00000000	   -450.24254518	  -3706.50082380	    158.56884695	     21.02166097	     -0.83110774	    154.22529327	     13.07963352	     14.98149480	     -6.48558350	    -45.00000000	    -39.96445455	     45.00000000	    -45.00000000	  -4213.52139442	    -87.64733544	    135.10178225	   -131.49578784	   1069.56664644	    399.90210140	     14.05813064	    -19.76116465
      4.89000000	     31.22726754	     24.89137060	     33.86120391	    -92.18184514	    852.23572686	    -48.69051794	     12.77901752	     34.13139327	     27.08348095	     45.00000000	    -45.00000000	   -450.31611012	  -3706.41473509	    158.41056433	     20.87294830	     -1.12370641	    154.21426450	     13.18380648	     15.05140160	     -6.34785984	    -45.00000000	    -40.10448204	     45.00000000	    -45.00000000	  -4213.50021425	    -87.65537825	    134.95917721	   -131.35545896	   1069.48882718	    399.89642115	     14.08898498	    -19.85886883
      4.90000000	     31.09634185	     24.98477786	     34.14266504	    -93.00824884	    853.43213044	    -48.85664699	     12.67713243	     34.14640407	     27.24294753	     45.00000000	    -45.00000000	   -450.35019751	  -3706.51779865	    158.54395831	     20.58514546	     -1.03855338	    154.20494031	     13.26332249	     14.95639258	     -6.21603383	    -45.00000000	    -40.27319446	     45.00000000	    -45.00000000	  -4213.36701109	    -87.61875972	    135.08174468	   -131.24404511	   1069.49499370	    399.90061530	     14.08320415	    -19.98099771
